<?xml version="1.0" encoding="utf-8"?>
<!-- Generator: Adobe Illustrator 24.1.1, SVG Export Plug-In . SVG Version: 6.00 Build 0)  -->
<svg version="1.1" id="Layer_1" xmlns="http://www.w3.org/2000/svg" xmlns:xlink="http://www.w3.org/1999/xlink" x="0px" y="0px"
	 viewBox="0 0 354 277" style="enable-background:new 0 0 354 277;" xml:space="preserve">
<style type="text/css">
	.st0{fill:#439CD6;}
</style>
<path id="XMLID_22_" class="st0" d="M117.9,270C238.2,270,304,170.3,304,83.9c0-2.8,0-5.6-0.2-8.5c12.8-9.3,23.8-20.7,32.6-33.9
	c-11.9,5.3-24.6,8.8-37.6,10.3c13.7-8.2,23.9-21,28.8-36.2c-12.8,7.6-26.9,13-41.5,15.9c-24.8-26.3-66.2-27.6-92.5-2.8
	c-17,16-24.2,39.8-18.9,62.5C122.1,88.6,73.1,63.7,39.9,22.9C22.5,52.8,31.4,91,60.1,110.2c-10.4-0.3-20.6-3.1-29.7-8.2
	c0,0.3,0,0.5,0,0.8c0,31.1,22,57.9,52.5,64.1c-9.6,2.6-19.7,3-29.5,1.1c8.6,26.6,33.1,44.9,61.1,45.4
	c-23.2,18.2-51.8,28.1-81.2,28.1c-5.2,0-10.4-0.3-15.6-0.9C47.5,259.8,82.3,270,117.9,270"/>
</svg>
